<?xml version="1.0" encoding="utf-8"?>
<svg viewBox="0 0 160 226" xmlns="http://www.w3.org/2000/svg">
  <g transform="matrix(0.10000000149011612, 0, 0, -0.10000000149011612, 0, 226.00000000000003)" fill="#000000" stroke="none">
    <path d="M 593.246 1107.344 L 593.246 0.652 L 922.36 124.824 L 1250.27 247.789 L 1253.886 375.577 L 1257.503 503.366 L 1227.363 503.366 C 1197.225 503.366 1197.225 500.955 1193.608 398.483 L 1189.992 294.806 L 930.8 194.744 C 788.544 139.29 667.989 94.684 663.168 93.479 C 657.14 93.479 653.523 549.176 653.523 1106.139 C 653.523 1663.102 657.14 2118.797 663.168 2118.797 C 667.989 2117.591 788.544 2072.987 930.8 2017.532 L 1189.992 1917.472 L 1193.608 1813.795 C 1197.225 1711.323 1197.225 1708.912 1226.158 1708.912 C 1256.296 1708.912 1256.296 1708.912 1256.296 1834.288 L 1256.296 1959.666 L 1145.386 2003.065 C 1083.904 2025.971 934.416 2083.837 813.861 2129.647 L 593.246 2212.831 L 593.246 1107.344 Z" style=""/>
    <path d="M 858.467 1106.139 L 858.467 575.698 L 960.937 575.698 L 1063.409 575.698 L 1063.409 726.391 L 1063.409 878.29 L 1103.193 931.334 C 1123.686 960.268 1145.386 984.378 1149.003 985.585 C 1156.236 985.585 1176.731 945.8 1279.203 730.008 L 1351.535 575.698 L 1473.295 575.698 L 1596.261 575.698 L 1517.901 723.979 C 1280.407 1174.855 1285.229 1165.21 1302.107 1190.526 C 1310.546 1204.993 1314.162 1221.871 1309.34 1230.31 C 1304.518 1238.748 1275.076 1170.671 1279.899 1164.644 C 1288.339 1157.41 1581.795 1612.469 1581.795 1631.757 C 1581.795 1634.169 1526.34 1636.579 1458.828 1636.579 L 1334.657 1635.373 L 1220.13 1431.636 C 1050.148 1127.839 1063.409 1130.25 1063.409 1405.113 L 1063.409 1636.579 L 960.937 1636.579 L 858.467 1636.579 L 858.467 1106.139 Z" style=""/>
  </g>
</svg>